<svg width="79" height="102" viewBox="0 0 79 102" fill="none" xmlns="http://www.w3.org/2000/svg">
<path d="M67.3976 102C65.7225 102 63.7764 101.951 61.5594 101.853C59.3916 101.755 57.2978 101.535 55.2778 101.192V70.0331C55.2778 67.9755 55.3025 66.1383 55.3517 64.5216C55.401 62.9049 55.4256 61.1167 55.4256 59.1571V39.7565C55.4256 37.7478 55.401 35.9597 55.3517 34.3919C55.3025 32.7752 55.2778 30.938 55.2778 28.8804V0.80836C57.2485 0.465422 59.3177 0.244959 61.4855 0.146972C63.6533 0.0489907 65.5254 0 67.102 0C68.5307 0 70.3782 0.0489907 72.6445 0.146972C74.9601 0.244959 77.0786 0.465422 79 0.80836V101.192C76.98 101.535 74.9355 101.755 72.8662 101.853C70.8463 101.951 69.0234 102 67.3976 102ZM11.8241 102C10.3954 102 8.52323 101.951 6.20767 101.853C3.94138 101.755 1.87215 101.535 0 101.192V0.80836C1.87215 0.465422 3.94138 0.244959 6.20767 0.146972C8.52323 0.0489907 10.3954 0 11.8241 0C13.4007 0 15.2728 0.0489907 17.4406 0.146972C19.6576 0.244959 21.7515 0.465422 23.7222 0.80836V28.8804C23.7222 30.938 23.6975 32.7752 23.6483 34.3919C23.599 35.9597 23.5744 37.7478 23.5744 39.7565V59.1571C23.5744 61.1167 23.599 62.9049 23.6483 64.5216C23.6975 66.1383 23.7222 67.9755 23.7222 70.0331V101.192C21.7515 101.535 19.6576 101.755 17.4406 101.853C15.2728 101.951 13.4007 102 11.8241 102ZM9.31151 59.304V39.6095C11.6271 39.6095 13.9919 39.634 16.406 39.683C18.8693 39.732 21.2588 39.7565 23.5744 39.7565C24.3134 39.7565 25.1017 39.7565 25.9392 39.7565C26.826 39.7075 27.7128 39.683 28.5996 39.683C29.4864 39.634 30.2747 39.6095 30.9645 39.6095H48.0355C48.7253 39.6095 49.5136 39.634 50.4004 39.683C51.2872 39.683 52.174 39.7075 53.0608 39.7565C53.9476 39.7565 54.7359 39.7565 55.4256 39.7565C57.7412 39.7565 60.106 39.732 62.5201 39.683C64.9342 39.634 67.299 39.6095 69.6146 39.6095V59.304C67.299 59.304 64.9342 59.2795 62.5201 59.2305C60.106 59.1816 57.7412 59.1571 55.4256 59.1571C54.7359 59.1571 53.9476 59.1816 53.0608 59.2305C52.174 59.2305 51.2872 59.255 50.4004 59.304C49.5136 59.304 48.7253 59.304 48.0355 59.304H30.9645C30.2747 59.304 29.4864 59.304 28.5996 59.304C27.7128 59.255 26.826 59.2305 25.9392 59.2305C25.1017 59.1816 24.3134 59.1571 23.5744 59.1571C21.2588 59.1571 18.8693 59.1816 16.406 59.2305C13.9919 59.2795 11.6271 59.304 9.31151 59.304Z" fill="#247045"/>
</svg>
