<svg width="355" height="73" viewBox="0 0 355 73" fill="none" xmlns="http://www.w3.org/2000/svg">
<path d="M322.511 51.896V41.576H340.607V40.472C340.607 39 340.399 37.656 339.983 36.44C339.567 35.192 338.895 34.2 337.967 33.464C337.071 32.696 335.855 32.312 334.319 32.312C331.983 32.312 330.335 33.272 329.375 35.192C328.447 37.112 327.983 40.072 327.983 44.072V48.584C327.983 50.76 328.175 52.792 328.559 54.68C328.943 56.568 329.759 58.088 331.007 59.24C332.255 60.392 334.159 60.968 336.719 60.968C338.895 60.968 341.023 60.696 343.103 60.152C345.215 59.576 347.231 58.888 349.151 58.088C350.271 59.176 351.167 60.552 351.839 62.216C352.511 63.88 352.959 65.464 353.183 66.968C350.751 68.728 347.839 70.072 344.447 71C341.087 71.928 337.695 72.392 334.271 72.392C330.047 72.392 326.559 71.704 323.807 70.328C321.055 68.92 318.879 67.032 317.279 64.664C315.679 62.296 314.543 59.624 313.871 56.648C313.231 53.64 312.911 50.552 312.911 47.384C312.911 42.552 313.631 38.2 315.071 34.328C316.543 30.456 318.863 27.384 322.031 25.112C325.199 22.808 329.327 21.656 334.415 21.656C338.639 21.656 342.239 22.552 345.215 24.344C348.191 26.136 350.463 28.568 352.031 31.64C353.631 34.68 354.431 38.136 354.431 42.008C354.431 44.152 354.319 45.944 354.095 47.384C353.903 48.792 353.583 50.296 353.135 51.896H322.511Z" fill="#247045"/>
<path d="M283.59 42.968C284.742 41.464 286.054 39.88 287.526 38.216C288.998 36.52 290.278 35.08 291.366 33.896L291.078 33.464C289.894 33.592 288.598 33.72 287.19 33.848C285.782 33.944 284.374 34.024 282.966 34.088C281.59 34.152 280.31 34.184 279.126 34.184H271.734C271.574 33.448 271.446 32.68 271.35 31.88C271.254 31.08 271.206 30.328 271.206 29.624C271.206 28.504 271.286 27.384 271.446 26.264C271.606 25.144 271.798 24.088 272.022 23.096H305.526C306.134 24.888 306.598 26.44 306.918 27.752C307.27 29.064 307.446 30.248 307.446 31.304C307.446 31.976 307.334 32.728 307.11 33.56C306.918 34.36 306.566 35.08 306.054 35.72L294.294 51.224C293.206 52.632 292.022 54.104 290.742 55.64C289.494 57.176 288.262 58.584 287.046 59.864L287.334 60.344C288.71 60.152 290.022 60.008 291.27 59.912C292.518 59.816 293.734 59.768 294.918 59.768H298.23C299.702 59.768 301.222 59.672 302.79 59.48C304.39 59.256 305.862 58.824 307.206 58.184C307.75 59.464 308.134 60.568 308.358 61.496C308.614 62.392 308.742 63.352 308.742 64.376C308.742 66.36 308.15 67.96 306.966 69.176C305.782 70.392 303.702 71 300.726 71H271.782C271.174 69.208 270.742 67.768 270.486 66.68C270.23 65.56 270.102 64.568 270.102 63.704C270.102 62.872 270.262 61.992 270.582 61.064C270.902 60.136 271.446 59.16 272.214 58.136L283.59 42.968Z" fill="#247045"/>
<path d="M221.411 57.896C221.411 54.024 222.307 50.872 224.099 48.44C225.891 45.976 228.227 44.152 231.107 42.968C234.019 41.784 237.123 41.192 240.419 41.192C241.859 41.192 243.667 41.224 245.843 41.288C248.051 41.352 250.035 41.56 251.795 41.912V51.416C250.419 51.096 248.755 50.92 246.803 50.888C244.883 50.824 243.283 50.792 242.003 50.792C239.859 50.792 238.323 51.368 237.395 52.52C236.467 53.64 236.003 55.096 236.003 56.888C236.003 58.168 236.387 59.24 237.155 60.104C237.955 60.936 239.043 61.352 240.419 61.352C242.339 61.352 244.291 60.664 246.275 59.288C248.259 57.912 249.939 56.024 251.315 53.624L253.427 63.128C252.179 64.6 250.755 66.056 249.155 67.496C247.555 68.904 245.683 70.072 243.539 71C241.395 71.928 238.883 72.392 236.003 72.392C232.707 72.392 229.971 71.672 227.795 70.232C225.651 68.76 224.051 66.92 222.995 64.712C221.939 62.472 221.411 60.2 221.411 57.896ZM264.947 64.04C264.691 65.384 264.099 66.824 263.171 68.36C262.243 69.896 261.315 71.032 260.387 71.768C257.571 71.704 255.235 71.064 253.379 69.848C251.555 68.632 250.147 67.144 249.155 65.384C248.195 63.592 247.571 61.848 247.283 60.152V39.608C247.283 37.624 246.771 36.12 245.747 35.096C244.755 34.04 243.171 33.512 240.995 33.512C238.947 33.512 236.707 33.848 234.275 34.52C231.843 35.16 229.363 35.848 226.835 36.584C225.779 35.368 224.947 33.8 224.339 31.88C223.763 29.928 223.395 28.024 223.235 26.168C225.411 25.272 227.811 24.52 230.435 23.912C233.059 23.272 235.667 22.792 238.259 22.472C240.851 22.12 243.171 21.944 245.219 21.944C248.035 21.944 250.739 22.472 253.331 23.528C255.923 24.552 258.051 26.264 259.715 28.664C261.411 31.032 262.259 34.248 262.259 38.312V57.848C262.259 59.224 262.483 60.44 262.931 61.496C263.379 62.552 264.051 63.4 264.947 64.04Z" fill="#247045"/>
<path d="M212.667 57.128C212.667 58.664 212.907 60.056 213.387 61.304C213.899 62.552 214.555 63.464 215.355 64.04C215.099 65.384 214.507 66.824 213.579 68.36C212.651 69.896 211.723 71.032 210.795 71.768C206.571 71.704 203.387 70.28 201.243 67.496C199.099 64.712 198.027 61.32 198.027 57.32V1.016L198.699 0.343994H204.555C207.499 0.343994 209.579 1.016 210.795 2.36C212.043 3.704 212.667 6.04 212.667 9.368V57.128ZM169.947 47.624C169.947 42.12 170.811 37.48 172.539 33.704C174.299 29.896 176.635 27.016 179.547 25.064C182.459 23.112 185.675 22.136 189.195 22.136C192.523 22.136 195.467 22.824 198.027 24.2C200.587 25.576 202.939 26.904 205.083 28.184L202.683 38.84C200.827 37.336 198.939 36.04 197.019 34.952C195.099 33.832 193.355 33.272 191.787 33.272C190.251 33.272 189.003 33.864 188.043 35.048C187.115 36.2 186.427 37.864 185.979 40.04C185.531 42.184 185.307 44.744 185.307 47.72C185.307 50.664 185.547 53.08 186.027 54.968C186.539 56.824 187.227 58.2 188.091 59.096C188.987 59.96 189.979 60.392 191.067 60.392C192.091 60.392 193.275 60.088 194.619 59.48C195.995 58.84 197.323 57.656 198.603 55.928C199.915 54.168 200.987 51.608 201.819 48.248L205.227 56.744C204.939 59.336 203.947 61.832 202.251 64.232C200.587 66.6 198.443 68.552 195.819 70.088C193.227 71.624 190.347 72.392 187.179 72.392C183.307 72.392 180.091 71.336 177.531 69.224C174.971 67.112 173.067 64.2 171.819 60.488C170.571 56.744 169.947 52.456 169.947 47.624Z" fill="#247045"/>
<path d="M161.273 71C160.217 71.192 159.033 71.32 157.721 71.384C156.409 71.48 155.097 71.528 153.785 71.528C152.537 71.528 151.241 71.48 149.897 71.384C148.585 71.32 147.369 71.192 146.249 71V39.224C146.249 37.624 145.913 36.296 145.241 35.24C144.601 34.184 143.433 33.656 141.737 33.656H140.297C139.881 32.024 139.673 30.328 139.673 28.568C139.673 27.736 139.721 26.856 139.817 25.928C139.913 24.968 140.073 24.056 140.297 23.192C141.769 23.032 143.273 22.92 144.809 22.856C146.377 22.76 147.689 22.712 148.745 22.712H150.809C154.041 22.712 156.585 23.752 158.441 25.832C160.329 27.88 161.273 30.664 161.273 34.184V71ZM143.369 9.608C143.369 8.712 143.465 7.784 143.657 6.824C143.849 5.832 144.121 4.888 144.473 3.992C145.305 3.576 146.377 3.224 147.689 2.936C149.033 2.648 150.345 2.504 151.625 2.504C152.937 2.504 154.265 2.648 155.609 2.936C156.985 3.224 158.041 3.576 158.777 3.992C159.129 4.888 159.401 5.848 159.593 6.872C159.785 7.864 159.881 8.776 159.881 9.608C159.881 10.472 159.785 11.4 159.593 12.392C159.401 13.384 159.129 14.312 158.777 15.176C158.041 15.592 156.985 15.944 155.609 16.232C154.265 16.52 152.937 16.664 151.625 16.664C150.345 16.664 149.017 16.536 147.641 16.28C146.265 15.992 145.209 15.624 144.473 15.176C144.121 14.312 143.849 13.384 143.657 12.392C143.465 11.4 143.369 10.472 143.369 9.608Z" fill="#247045"/>
<path d="M136.478 60.056C136.83 61.112 137.118 62.264 137.342 63.512C137.566 64.728 137.678 65.944 137.678 67.16C137.678 67.704 137.646 68.28 137.582 68.888C137.55 69.496 137.454 70.056 137.294 70.568C135.854 70.792 134.238 71 132.446 71.192C130.654 71.384 128.83 71.48 126.974 71.48C122.622 71.48 119.534 70.408 117.71 68.264C115.918 66.088 115.022 62.712 115.022 58.136V1.016L115.694 0.343994H121.55C124.494 0.343994 126.59 1.016 127.838 2.36C129.086 3.704 129.71 6.04 129.71 9.368V55.496C129.71 56.968 130.03 58.104 130.67 58.904C131.31 59.672 132.366 60.056 133.838 60.056H136.478Z" fill="#247045"/>
<path d="M106.482 47.048C106.482 52.168 105.634 56.632 103.938 60.44C102.242 64.248 99.746 67.192 96.45 69.272C93.186 71.352 89.138 72.392 84.306 72.392C79.442 72.392 75.362 71.352 72.066 69.272C68.77 67.16 66.29 64.2 64.626 60.392C62.962 56.584 62.13 52.136 62.13 47.048C62.13 41.896 62.962 37.432 64.626 33.656C66.322 29.848 68.818 26.904 72.114 24.824C75.41 22.712 79.474 21.656 84.306 21.656C89.17 21.656 93.25 22.712 96.546 24.824C99.842 26.936 102.322 29.896 103.986 33.704C105.65 37.48 106.482 41.928 106.482 47.048ZM77.538 47.048C77.538 49.672 77.682 52.056 77.97 54.2C78.29 56.344 78.93 58.056 79.89 59.336C80.882 60.584 82.354 61.208 84.306 61.208C86.29 61.208 87.762 60.584 88.722 59.336C89.682 58.056 90.306 56.344 90.594 54.2C90.914 52.056 91.074 49.672 91.074 47.048C91.074 44.392 90.914 41.992 90.594 39.848C90.306 37.704 89.682 36.008 88.722 34.76C87.762 33.48 86.29 32.84 84.306 32.84C82.354 32.84 80.882 33.48 79.89 34.76C78.93 36.008 78.29 37.704 77.97 39.848C77.682 41.992 77.538 44.392 77.538 47.048Z" fill="#247045"/>
<path d="M44.4157 71.528C43.3277 71.528 42.0638 71.496 40.6237 71.432C39.2157 71.368 37.8557 71.224 36.5437 71V50.648C36.5437 49.304 36.5597 48.104 36.5917 47.048C36.6237 45.992 36.6398 44.824 36.6398 43.544V30.872C36.6398 29.56 36.6237 28.392 36.5917 27.368C36.5597 26.312 36.5437 25.112 36.5437 23.768V5.43199C37.8237 5.20799 39.1677 5.06399 40.5757 4.99999C41.9837 4.93599 43.1997 4.90399 44.2238 4.90399C45.1518 4.90399 46.3517 4.93599 47.8237 4.99999C49.3277 5.06399 50.7037 5.20799 51.9517 5.43199V71C50.6397 71.224 49.3117 71.368 47.9677 71.432C46.6557 71.496 45.4717 71.528 44.4157 71.528ZM8.31975 71.528C7.39175 71.528 6.17575 71.496 4.67175 71.432C3.19975 71.368 1.85575 71.224 0.639748 71V5.43199C1.85575 5.20799 3.19975 5.06399 4.67175 4.99999C6.17575 4.93599 7.39175 4.90399 8.31975 4.90399C9.34375 4.90399 10.5597 4.93599 11.9677 4.99999C13.4077 5.06399 14.7677 5.20799 16.0477 5.43199V23.768C16.0477 25.112 16.0317 26.312 15.9997 27.368C15.9677 28.392 15.9517 29.56 15.9517 30.872V43.544C15.9517 44.824 15.9677 45.992 15.9997 47.048C16.0317 48.104 16.0477 49.304 16.0477 50.648V71C14.7677 71.224 13.4077 71.368 11.9677 71.432C10.5597 71.496 9.34375 71.528 8.31975 71.528ZM6.68775 43.64V30.776C8.19175 30.776 9.72775 30.792 11.2957 30.824C12.8957 30.856 14.4477 30.872 15.9517 30.872C16.4317 30.872 16.9437 30.872 17.4877 30.872C18.0637 30.84 18.6397 30.824 19.2157 30.824C19.7917 30.792 20.3037 30.776 20.7517 30.776H31.8397C32.2877 30.776 32.7997 30.792 33.3757 30.824C33.9517 30.824 34.5277 30.84 35.1037 30.872C35.6797 30.872 36.1917 30.872 36.6398 30.872C38.1438 30.872 39.6797 30.856 41.2477 30.824C42.8157 30.792 44.3517 30.776 45.8558 30.776V43.64C44.3517 43.64 42.8157 43.624 41.2477 43.592C39.6797 43.56 38.1438 43.544 36.6398 43.544C36.1917 43.544 35.6797 43.56 35.1037 43.592C34.5277 43.592 33.9517 43.608 33.3757 43.64C32.7997 43.64 32.2877 43.64 31.8397 43.64H20.7517C20.3037 43.64 19.7917 43.64 19.2157 43.64C18.6397 43.608 18.0637 43.592 17.4877 43.592C16.9437 43.56 16.4317 43.544 15.9517 43.544C14.4477 43.544 12.8957 43.56 11.2957 43.592C9.72775 43.624 8.19175 43.64 6.68775 43.64Z" fill="#247045"/>
</svg>
